<svg width="136" height="136" viewBox="0 0 136 136" fill="none" xmlns="http://www.w3.org/2000/svg">
<path d="M47.9776 0.440788C44.7467 0.090913 42.1666 0.32623 40.1573 1.16019C38.1705 1.98482 36.1273 3.68817 34.1242 6.21707L33.4522 7.0552L29.0268 17.7609L60.5325 30.7845L61.9188 30.5579C64.6385 30.1199 68.1847 29.977 70.9366 30.2033C76.8664 30.6831 82.7632 32.6371 87.8259 35.7993C91.976 38.3797 95.7495 41.9388 98.6047 45.9646L99.1701 46.7562L130.684 59.7831L135.109 49.0774L135.225 48.0094C135.659 44.1714 135.228 41.1198 133.956 38.9763C133.045 37.4465 131.717 35.912 130.053 34.4709L129.124 33.6591L49.0185 0.554871L47.9776 0.440788ZM126.078 36.7984C126.386 37.1116 126.623 37.6186 126.667 38.0739L126.707 38.4718L124.275 44.4222C121.839 50.3614 121.839 50.3614 121.505 50.6975C121.116 51.0761 120.489 51.3099 119.992 51.2531C119.748 51.2359 118.006 50.5441 113.781 48.7975C108.047 46.4272 107.908 46.3602 107.624 46.0569C107.248 45.66 107.107 45.3503 107.067 44.7945L107.031 44.3424L109.444 38.5051C111.778 32.8584 111.871 32.6552 112.193 32.3046C112.579 31.8877 112.967 31.7134 113.559 31.6978C113.974 31.6834 114.121 31.7346 119.926 34.1344C124.731 36.1207 125.905 36.6336 126.078 36.7984Z" fill="#F2F2F2"/>
<path d="M78.6507 37.0745C72.9844 35.0577 66.653 34.6722 60.7792 35.9917C57.2943 36.7736 53.287 38.4368 50.2727 40.3525C45.67 43.2761 41.8322 47.4085 39.141 52.3218C38.3242 53.8254 37.0438 56.9228 36.5606 58.5642C35.439 62.4247 35.0447 66.0556 35.3131 70.0629C35.9419 79.5196 40.7621 88.3748 48.3358 93.9884C56.0234 99.6863 65.8129 101.762 75.0248 99.6554C78.4938 98.8669 82.2879 97.2922 85.2956 95.3924C94.1065 89.8471 99.7739 80.2313 100.406 69.7709C100.705 64.7057 99.824 59.729 97.7944 54.9658C94.981 48.4094 90.2415 43.0933 84.0201 39.5172C83.1845 39.0416 80.5803 37.7605 80.0701 37.5775C79.9589 37.5316 79.3263 37.3073 78.6507 37.0745ZM81.73 43.685C88.9984 47.945 93.839 54.8837 95.2941 63.129C95.968 66.9877 95.7805 71.0855 94.7349 75.1447C94.3523 76.6325 92.8225 80.3335 92.0428 81.6571C88.794 87.1768 84.267 91.1546 78.5086 93.5447C72.747 95.9427 66.7562 96.3303 60.5186 94.7283C59.0658 94.3509 55.3377 92.8191 54.0459 92.0526C47.5766 88.2439 43.1801 82.6604 41.1017 75.6081C39.6594 70.7065 39.6143 65.7314 40.9542 60.5106C41.3282 59.0658 42.8712 55.3331 43.6265 54.0458C47.1128 48.1315 52.189 43.86 58.3987 41.6379C64.2399 39.5424 70.3359 39.44 76.4713 41.3345C77.3268 41.6045 80.901 43.1936 81.73 43.685Z" fill="#F2F2F2"/>
<path d="M0.0610469 87.8328L0.0482071 88.6737C0.0122178 91.3927 0.486637 94.1368 1.27941 95.8407C2.14398 97.686 3.87962 99.696 6.21707 101.555L7.0552 102.227L86.6018 135.109L87.6697 135.225C89.8645 135.472 91.8806 135.432 93.5951 135.108C96.2327 134.599 98.7802 132.89 101.329 129.918L102.027 129.108L128.419 65.263L103.306 54.8823L103.462 55.3373C104.649 58.9896 105.171 61.4374 105.436 64.6434C105.741 68.2936 105.581 71.5379 104.907 74.9885C102.876 85.5031 96.6725 94.4601 87.5385 100.067C84.4059 101.999 80.3312 103.69 76.7514 104.544C62.9452 107.867 48.5628 103.27 39.2839 92.5807C35.4187 88.1188 32.504 82.4597 31.1348 76.7514C28.6305 66.3427 30.5571 55.6083 36.5221 46.7571C40.0177 41.5626 44.9468 37.1745 50.4178 34.3774C50.9122 34.1261 51.4324 33.8576 51.5882 33.7732L51.866 33.6184L26.7615 23.2409L0.0610469 87.8328Z" fill="#F2F2F2"/>
</svg>
